<svg xmlns="http://www.w3.org/2000/svg" xmlns:xlink="http://www.w3.org/1999/xlink" width="2000" zoomAndPan="magnify" viewBox="0 0 1500 1499.999933" height="2000" preserveAspectRatio="xMidYMid meet" version="1.0"><defs><clipPath id="a41424e51a"><path d="M 108.304688 108.304688 L 1391.554688 108.304688 L 1391.554688 1391.554688 L 108.304688 1391.554688 Z M 108.304688 108.304688 " clip-rule="nonzero"/></clipPath></defs><g clip-path="url(#a41424e51a)"><path fill="#c9a369" d="M 484.070312 112.71875 C 415.820312 115.921875 369.210938 126.863281 328.46875 142.824219 C 286.273438 159.265625 250.546875 181.269531 215 216.996094 C 179.394531 252.722656 157.511719 288.511719 141.25 330.765625 C 125.472656 371.628906 114.773438 418.238281 111.75 486.546875 C 108.726562 554.917969 108.0625 576.742188 108.367188 750.960938 C 108.667969 925.121094 109.453125 947.003906 112.71875 1015.4375 C 115.984375 1083.683594 126.863281 1130.234375 142.824219 1171.039062 C 159.265625 1213.230469 181.269531 1248.898438 216.996094 1284.503906 C 252.722656 1320.109375 288.511719 1341.933594 330.765625 1358.253906 C 371.570312 1374.03125 418.238281 1384.792969 486.488281 1387.753906 C 554.917969 1390.777344 576.742188 1391.441406 750.902344 1391.078125 C 925.121094 1390.777344 946.945312 1389.992188 1015.375 1386.726562 C 1083.625 1383.460938 1130.171875 1372.519531 1170.976562 1356.621094 C 1213.171875 1340.121094 1248.898438 1318.175781 1284.445312 1282.449219 C 1319.988281 1246.722656 1341.871094 1210.933594 1358.195312 1168.679688 C 1373.972656 1127.875 1384.730469 1081.207031 1387.695312 1013.019531 C 1390.65625 944.585938 1391.382812 922.703125 1391.078125 748.542969 C 1390.777344 574.382812 1389.929688 552.5625 1386.726562 484.128906 C 1383.460938 415.820312 1372.582031 369.273438 1356.621094 328.46875 C 1340.121094 286.273438 1318.175781 250.605469 1282.449219 215 C 1246.722656 179.457031 1210.933594 157.511719 1168.679688 141.25 C 1127.875 125.472656 1081.207031 114.714844 1012.957031 111.75 C 944.527344 108.726562 922.644531 108.0625 748.484375 108.367188 C 574.324219 108.667969 552.5 109.453125 484.070312 112.71875 M 491.566406 1272.234375 C 429.058594 1269.511719 395.085938 1259.113281 372.417969 1250.410156 C 342.433594 1238.804688 321.09375 1224.898438 298.546875 1202.59375 C 276.058594 1180.164062 262.152344 1158.824219 250.425781 1128.964844 C 241.660156 1106.355469 231.082031 1072.441406 228.121094 1009.875 C 224.914062 942.289062 224.191406 921.976562 223.886719 750.71875 C 223.585938 579.523438 224.191406 559.210938 227.152344 491.566406 C 229.8125 429.058594 240.269531 395.085938 248.976562 372.476562 C 260.582031 342.492188 274.425781 321.152344 296.792969 298.605469 C 319.21875 276.117188 340.558594 262.214844 370.480469 250.488281 C 393.089844 241.660156 427.003906 231.140625 489.511719 228.179688 C 557.15625 224.976562 577.40625 224.3125 748.664062 223.949219 C 919.921875 223.585938 940.234375 224.191406 1007.878906 227.210938 C 1070.386719 229.933594 1104.359375 240.269531 1126.96875 249.035156 C 1156.953125 260.640625 1178.351562 274.425781 1200.839844 296.851562 C 1223.328125 319.28125 1237.292969 340.558594 1248.957031 370.542969 C 1257.785156 393.089844 1268.304688 427.0625 1271.265625 489.511719 C 1274.46875 557.15625 1275.195312 577.46875 1275.496094 748.664062 C 1275.800781 919.921875 1275.195312 940.234375 1272.234375 1007.820312 C 1269.511719 1070.324219 1259.113281 1104.359375 1250.410156 1126.96875 C 1238.804688 1156.890625 1224.960938 1178.292969 1202.53125 1200.78125 C 1180.105469 1223.207031 1158.828125 1237.171875 1128.84375 1248.898438 C 1106.292969 1257.722656 1072.320312 1268.242188 1009.875 1271.203125 C 942.230469 1274.410156 921.976562 1275.132812 750.660156 1275.4375 C 579.460938 1275.738281 559.148438 1275.132812 491.503906 1272.171875 M 1014.46875 406.875 C 1014.527344 449.371094 1049.105469 483.765625 1091.542969 483.648438 C 1134.042969 483.585938 1168.4375 449.070312 1168.378906 406.570312 C 1168.316406 364.074219 1133.738281 329.675781 1091.242188 329.738281 C 1048.746094 329.796875 1014.347656 364.375 1014.40625 406.8125 M 420.355469 750.355469 C 420.71875 932.253906 568.460938 1079.394531 750.296875 1079.03125 C 932.195312 1078.667969 1079.394531 930.984375 1079.03125 749.085938 C 1078.667969 567.25 930.925781 420.050781 749.027344 420.355469 C 567.191406 420.71875 419.992188 568.460938 420.355469 750.355469 M 535.875 750.117188 C 535.695312 632.054688 631.207031 536.117188 749.269531 535.9375 C 867.332031 535.695312 963.265625 631.207031 963.507812 749.328125 C 963.75 867.390625 868.175781 963.328125 750.117188 963.507812 C 632.054688 963.75 536.117188 868.175781 535.9375 750.117188 " fill-opacity="1" fill-rule="nonzero"/></g></svg>