<svg xmlns="http://www.w3.org/2000/svg" xmlns:xlink="http://www.w3.org/1999/xlink" width="2000" zoomAndPan="magnify" viewBox="0 0 1500 1499.999933" height="2000" preserveAspectRatio="xMidYMid meet" version="1.0"><defs><clipPath id="ae0f6d933f"><path d="M 150 50 L 1349.25 50 L 1349.25 1450 L 150 1450 Z M 150 50 " clip-rule="nonzero"/></clipPath></defs><g clip-path="url(#ae0f6d933f)"><path fill="#000000" d="M 749.625 50.695312 C 418.878906 50.695312 150 319.511719 150 650.175781 C 150 881.171875 298.589844 1079.050781 443.304688 1219.476562 C 588.023438 1359.902344 732.707031 1444.929688 732.707031 1444.929688 C 733.984375 1445.683594 735.304688 1446.347656 736.667969 1446.921875 C 738.03125 1447.496094 739.429688 1447.980469 740.859375 1448.371094 C 742.285156 1448.757812 743.734375 1449.050781 745.203125 1449.25 C 746.671875 1449.445312 748.144531 1449.542969 749.625 1449.542969 C 751.105469 1449.542969 752.578125 1449.445312 754.046875 1449.25 C 755.515625 1449.050781 756.964844 1448.757812 758.390625 1448.371094 C 759.820312 1447.980469 761.21875 1447.496094 762.582031 1446.921875 C 763.945312 1446.347656 765.265625 1445.683594 766.542969 1444.929688 C 766.542969 1444.929688 911.226562 1359.902344 1055.945312 1219.476562 C 1200.660156 1079.050781 1349.25 881.171875 1349.25 650.175781 C 1349.25 319.511719 1080.371094 50.695312 749.625 50.695312 Z M 749.625 117.304688 C 1044.355469 117.304688 1282.625 355.515625 1282.625 650.175781 C 1282.625 852.136719 1148.058594 1037.261719 1009.617188 1171.601562 C 879.625 1297.738281 765 1365.050781 749.625 1374.289062 C 734.25 1365.050781 619.625 1297.738281 489.632812 1171.601562 C 351.191406 1037.261719 216.625 852.136719 216.625 650.175781 C 216.625 355.515625 454.894531 117.304688 749.625 117.304688 Z M 749.625 383.742188 C 663.566406 383.742188 594.851562 417.203125 549.878906 467.78125 C 504.910156 518.363281 483.125 584.492188 483.125 650.175781 C 483.125 715.859375 504.910156 781.992188 549.878906 832.570312 C 594.851562 883.148438 663.566406 916.613281 749.625 916.613281 C 835.683594 916.613281 904.398438 883.148438 949.371094 832.570312 C 994.339844 781.992188 1016.125 715.859375 1016.125 650.175781 C 1016.125 584.492188 994.339844 518.363281 949.371094 467.78125 C 904.398438 417.203125 835.683594 383.742188 749.625 383.742188 Z M 749.625 450.351562 C 819.027344 450.351562 866.902344 475.171875 899.660156 512.015625 C 932.421875 548.859375 949.5 599.296875 949.5 650.175781 C 949.5 701.058594 932.421875 751.492188 899.660156 788.339844 C 866.902344 825.183594 819.027344 850.003906 749.625 850.003906 C 680.222656 850.003906 632.347656 825.183594 599.589844 788.339844 C 566.828125 751.492188 549.75 701.058594 549.75 650.175781 C 549.75 599.296875 566.828125 548.859375 599.589844 512.015625 C 632.347656 475.171875 680.222656 450.351562 749.625 450.351562 Z M 749.625 450.351562 " fill-opacity="1" fill-rule="nonzero"/></g></svg>