<svg xmlns="http://www.w3.org/2000/svg" xmlns:xlink="http://www.w3.org/1999/xlink" width="2000" zoomAndPan="magnify" viewBox="0 0 1500 1499.999933" height="2000" preserveAspectRatio="xMidYMid meet" version="1.0"><defs><clipPath id="a282f8ce0b"><path d="M 101.988281 99 L 1397.988281 99 L 1397.988281 1401.933594 L 101.988281 1401.933594 Z M 101.988281 99 " clip-rule="nonzero"/></clipPath></defs><g clip-path="url(#a282f8ce0b)"><path fill="#c9a369" d="M 1209.046875 288.308594 C 1087.234375 166.367188 925.25 99.085938 752.640625 99.085938 C 396.988281 99.085938 107.523438 388.488281 107.394531 744.265625 C 107.394531 857.964844 137.078125 969.027344 193.539062 1066.824219 L 101.988281 1401.164062 L 444.054688 1311.414062 C 538.308594 1362.855469 644.410156 1389.894531 752.382812 1389.960938 L 752.640625 1389.960938 C 1108.226562 1389.960938 1397.753906 1100.496094 1397.816406 744.78125 C 1397.816406 572.363281 1330.859375 410.3125 1208.984375 288.308594 Z M 752.640625 1281.023438 L 752.445312 1281.023438 C 656.257812 1281.023438 561.808594 1255.144531 479.464844 1206.277344 L 459.890625 1194.621094 L 256.890625 1247.867188 L 311.039062 1049.953125 L 298.289062 1029.675781 C 244.59375 944.304688 216.265625 845.605469 216.332031 744.265625 C 216.460938 448.621094 457.058594 208.023438 752.832031 208.023438 C 896.082031 208.023438 1030.707031 263.90625 1131.980469 365.308594 C 1233.253906 466.648438 1288.945312 601.402344 1288.882812 744.71875 C 1288.753906 1040.425781 1048.15625 1281.023438 752.574219 1281.023438 Z M 1046.804688 879.40625 C 1030.707031 871.359375 951.453125 832.339844 936.644531 826.996094 C 921.835938 821.589844 911.148438 818.949219 900.398438 835.046875 C 889.644531 851.207031 858.742188 887.515625 849.34375 898.269531 C 839.941406 909.019531 830.542969 910.375 814.382812 902.261719 C 798.285156 894.214844 746.328125 877.152344 684.714844 822.234375 C 636.816406 779.484375 604.429688 726.691406 595.03125 710.53125 C 585.628906 694.371094 594.066406 685.679688 602.113281 677.628906 C 609.324219 670.417969 618.207031 658.765625 626.320312 649.367188 C 634.367188 639.964844 637.070312 633.207031 642.417969 622.453125 C 647.824219 611.703125 645.121094 602.300781 641.0625 594.191406 C 637.007812 586.140625 604.816406 506.757812 591.359375 474.503906 C 578.289062 443.082031 564.964844 447.332031 555.113281 446.816406 C 545.714844 446.367188 534.960938 446.238281 524.210938 446.238281 C 513.457031 446.238281 496.011719 450.230469 481.203125 466.390625 C 466.394531 482.550781 424.800781 521.566406 424.800781 600.886719 C 424.800781 680.207031 482.554688 756.886719 490.667969 767.703125 C 498.714844 778.453125 604.367188 941.277344 766.09375 1011.132812 C 804.53125 1027.742188 834.597656 1037.65625 858.035156 1045.125 C 896.664062 1057.421875 931.816406 1055.683594 959.566406 1051.5 C 990.53125 1046.863281 1054.914062 1012.484375 1068.371094 974.820312 C 1081.828125 937.15625 1081.828125 904.902344 1077.773438 898.140625 C 1073.714844 891.378906 1062.964844 887.390625 1046.867188 879.277344 Z M 1046.804688 879.40625 " fill-opacity="1" fill-rule="evenodd"/></g></svg>