<svg xmlns="http://www.w3.org/2000/svg" xmlns:xlink="http://www.w3.org/1999/xlink" width="2000" zoomAndPan="magnify" viewBox="0 0 1500 1499.999933" height="2000" preserveAspectRatio="xMidYMid meet" version="1.0"><defs><clipPath id="1df46e3b2b"><path d="M 79.132812 81.574219 L 1420.882812 81.574219 L 1420.882812 1418.074219 L 79.132812 1418.074219 Z M 79.132812 81.574219 " clip-rule="nonzero"/></clipPath></defs><g clip-path="url(#1df46e3b2b)"><path fill="#c9a369" d="M 1421.011719 752.527344 C 1421.011719 381.941406 1120.640625 81.574219 750.117188 81.574219 C 379.59375 81.574219 79.164062 381.941406 79.164062 752.527344 C 79.164062 1067.167969 295.769531 1331.226562 588.007812 1403.730469 L 588.007812 957.570312 L 449.625 957.570312 L 449.625 752.527344 L 588.007812 752.527344 L 588.007812 664.1875 C 588.007812 435.839844 691.34375 329.972656 915.539062 329.972656 C 958.050781 329.972656 1031.398438 338.285156 1061.386719 346.65625 L 1061.386719 532.488281 C 1045.550781 530.804688 1018.03125 529.960938 983.886719 529.960938 C 873.867188 529.960938 831.351562 571.632812 831.351562 679.964844 L 831.351562 752.46875 L 1050.488281 752.46875 L 1012.851562 957.511719 L 831.351562 957.511719 L 831.351562 1418.484375 C 1163.578125 1378.378906 1421.011719 1095.472656 1421.011719 752.46875 Z M 1421.011719 752.527344 " fill-opacity="1" fill-rule="nonzero"/></g></svg>