<svg xmlns="http://www.w3.org/2000/svg" xmlns:xlink="http://www.w3.org/1999/xlink" width="2000" zoomAndPan="magnify" viewBox="0 0 1500 1499.999933" height="2000" preserveAspectRatio="xMidYMid meet" version="1.0"><defs><clipPath id="5136193cb9"><path d="M 54.738281 215.28125 L 1445.238281 215.28125 L 1445.238281 1284.78125 L 54.738281 1284.78125 Z M 54.738281 215.28125 " clip-rule="nonzero"/></clipPath><clipPath id="1c3d249d75"><path d="M 187 215.28125 L 1313 215.28125 L 1313 294 L 187 294 Z M 187 215.28125 " clip-rule="nonzero"/></clipPath><clipPath id="b1b450f519"><path d="M 54.738281 215.28125 L 1445.238281 215.28125 L 1445.238281 1284.78125 L 54.738281 1284.78125 Z M 54.738281 215.28125 " clip-rule="nonzero"/></clipPath></defs><path fill="#ffffff" d="M 1273.3125 254.382812 C 1323.078125 262.28125 1365.253906 293.742188 1387.96875 336.871094 C 1390.921875 342.464844 1393.519531 348.214844 1395.769531 354.125 C 1398.023438 360.03125 1399.90625 366.058594 1401.421875 372.195312 C 1402.941406 378.332031 1404.078125 384.542969 1404.839844 390.820312 C 1405.601562 397.097656 1405.980469 403.398438 1405.976562 409.71875 L 1405.976562 1088.378906 C 1405.976562 1174.878906 1335.207031 1245.652344 1248.714844 1245.652344 L 251.265625 1245.652344 C 164.769531 1245.652344 94 1174.878906 94 1088.378906 L 94 409.71875 C 93.996094 403.398438 94.375 397.097656 95.136719 390.820312 C 95.898438 384.542969 97.039062 378.332031 98.554688 372.195312 C 100.074219 366.058594 101.957031 360.03125 104.207031 354.125 C 106.457031 348.214844 109.058594 342.464844 112.007812 336.871094 C 134.71875 293.742188 176.914062 262.28125 226.671875 254.382812 " fill-opacity="1" fill-rule="nonzero"/><g clip-path="url(#5136193cb9)"><path stroke-linecap="round" transform="matrix(0.646293, 0, 0, 0.646341, -219.450152, -219.492834)" fill="none" stroke-linejoin="round" d="M 2309.731296 733.166983 C 2386.732969 745.387222 2451.99098 794.062693 2487.137348 860.790516 C 2491.706678 869.445007 2495.725996 878.341245 2499.20739 887.485271 C 2502.694829 896.623254 2505.608079 905.948589 2507.953185 915.443147 C 2510.304335 924.937704 2512.063164 934.547091 2513.241761 944.25922 C 2514.420358 953.971348 2515.006635 963.719738 2515.000591 973.498347 L 2515.000591 2023.502125 C 2515.000591 2157.332476 2405.49986 2266.831134 2271.671678 2266.831134 L 728.332103 2266.831134 C 594.497876 2266.831134 484.997146 2157.332476 484.997146 2023.502125 L 484.997146 973.498347 C 484.991102 963.719738 485.577378 953.971348 486.755975 944.25922 C 487.934572 934.547091 489.699446 924.937704 492.044551 915.443147 C 494.395701 905.948589 497.308952 896.623254 500.790346 887.485271 C 504.27174 878.341245 508.297102 869.445007 512.860388 860.790516 C 548.000712 794.062693 613.288944 745.387222 690.278529 733.166983 " stroke="#000000" stroke-width="121" stroke-opacity="1" stroke-miterlimit="4"/></g><g clip-path="url(#1c3d249d75)"><path stroke-linecap="butt" transform="matrix(0.646293, 0, 0, 0.646341, 54.901123, 215.281133)" fill="none" stroke-linejoin="miter" d="M 1885.201089 60.497012 L 265.772498 60.497012 " stroke="#000000" stroke-width="121" stroke-opacity="1" stroke-miterlimit="10"/></g><g clip-path="url(#b1b450f519)"><path stroke-linecap="butt" transform="matrix(0.646293, 0, 0, 0.646341, -219.450152, -219.492834)" fill="none" stroke-linejoin="miter" d="M 512.860388 860.790516 C 517.061029 865.836955 521.799594 870.321335 527.070038 874.237614 L 1453.072574 1566.439808 C 1454.746786 1567.696885 1456.475395 1568.881439 1458.252357 1569.999512 C 1460.023274 1571.111542 1461.842545 1572.157091 1463.698079 1573.130117 C 1465.553614 1574.097099 1467.451458 1574.991558 1469.379522 1575.813493 C 1471.307585 1576.629384 1473.26587 1577.372752 1475.260419 1578.031509 C 1477.248923 1578.696309 1479.261604 1579.276498 1481.298462 1579.772077 C 1483.329275 1580.273699 1485.384265 1580.69071 1487.451343 1581.02311 C 1489.524465 1581.361554 1491.603631 1581.615387 1493.688841 1581.778565 C 1495.780095 1581.947787 1497.871349 1582.032398 1499.968648 1582.032398 C 1502.065946 1582.032398 1504.1572 1581.947787 1506.248454 1581.778565 C 1508.339709 1581.615387 1510.418875 1581.361554 1512.485953 1581.02311 C 1514.559075 1580.69071 1516.60802 1580.273699 1518.644878 1579.772077 C 1520.681735 1579.276498 1522.694416 1578.696309 1524.682921 1578.031509 C 1526.671426 1577.372752 1528.62971 1576.629384 1530.557774 1575.813493 C 1532.491882 1574.991558 1534.383681 1574.097099 1536.24526 1573.130117 C 1538.100795 1572.157091 1539.914021 1571.111542 1541.690983 1569.999512 C 1543.4619 1568.881439 1545.190509 1567.696885 1546.870766 1566.439808 L 2472.867258 874.237614 C 2478.143746 870.321335 2482.876266 865.836955 2487.082951 860.790516 " stroke="#000000" stroke-width="121" stroke-opacity="1" stroke-miterlimit="10"/></g></svg>